<svg xmlns="http://www.w3.org/2000/svg" viewBox="0 0 1200 900" role="img" aria-label="Verse biologische Varlaks zalmfilet — Schaap's Vishandel Leiden">
  <defs>
    <linearGradient id="bgz" x1="0" y1="0" x2="1" y2="1">
      <stop offset="0" stop-color="#e8927c"/>
      <stop offset="1" stop-color="#c0392b"/>
    </linearGradient>
  </defs>
  <rect width="1200" height="900" fill="url(#bgz)"/>
  <g transform="translate(600 450) rotate(-12)">
    <path d="M-330 0 Q-260 -150 0 -150 Q300 -150 360 0 Q300 150 0 150 Q-260 150 -330 0 Z" fill="#f3b3a1"/>
    <g fill="none" stroke="#f7fbfe" stroke-width="10" opacity="0.6" stroke-linecap="round">
      <path d="M-280 0 Q-100 -70 300 -45"/>
      <path d="M-280 0 Q-100 70 300 45"/>
      <path d="M-250 -45 Q-60 -95 320 -10"/>
      <path d="M-250 45 Q-60 95 320 10"/>
    </g>
    <path d="M-330 0 Q-260 -150 0 -150 Q300 -150 360 0 Q300 150 0 150 Q-260 150 -330 0 Z" fill="none" stroke="#a83327" stroke-width="8" opacity="0.5"/>
  </g>
  <text x="60" y="855" font-family="Georgia, 'Times New Roman', serif" font-size="36" fill="#f7fbfe" opacity="0.95">Schaap's Vis · Varlaks zalm</text>
</svg>
